<?xml version="1.0" standalone="no"?>
<!DOCTYPE svg PUBLIC "-//W3C//DTD SVG 20010904//EN"
 "http://www.w3.org/TR/2001/REC-SVG-20010904/DTD/svg10.dtd">
<svg version="1.0" xmlns="http://www.w3.org/2000/svg"
 width="500.000000pt" height="500.000000pt" viewBox="0 0 500.000000 500.000000"
 preserveAspectRatio="xMidYMid meet">
<metadata>
Created by potrace 1.11, written by Peter Selinger 2001-2013
</metadata>
<g transform="translate(0.000000,500.000000) scale(0.100000,-0.100000)"
fill="#000000" stroke="none">
<path d="M0 2500 l0 -2500 2500 0 2500 0 0 2500 0 2500 -2500 0 -2500 0 0
-2500z m4620 0 l0 -2120 -2120 0 -2120 0 0 2120 0 2120 2120 0 2120 0 0 -2120z"/>
<path d="M2503 4493 l-1993 -3 -2 -1995 -3 -1995 1998 0 1997 0 0 2000 c0
1100 -1 1999 -2 1998 -2 -2 -900 -4 -1995 -5z m-1183 -1845 c24 -13 45 -27 47
-33 2 -5 -8 -23 -21 -40 -24 -29 -25 -30 -53 -14 -48 28 -88 32 -128 13 -122
-58 -57 -250 73 -218 36 9 37 10 40 62 l3 52 45 0 44 0 0 -79 0 -79 -51 -21
c-110 -48 -235 -19 -289 66 -53 83 -48 170 13 240 65 74 187 96 277 51z m446
3 c57 -26 74 -54 74 -121 0 -54 -17 -95 -47 -113 -19 -12 -16 -23 22 -83 19
-30 35 -57 35 -59 0 -3 -24 -5 -54 -5 l-54 0 -31 55 c-30 52 -33 55 -71 55
l-40 0 0 -55 0 -55 -50 0 -50 0 0 200 0 200 113 0 c88 0 121 -4 153 -19z m304
-181 l0 -200 -50 0 -50 0 0 200 0 200 50 0 50 0 0 -200z m418 184 c80 -33 125
-100 125 -184 0 -63 -17 -101 -65 -147 -43 -41 -79 -54 -150 -54 -176 -1 -273
174 -176 317 49 72 177 105 266 68z m542 -24 l0 -40 -60 0 -60 0 0 -160 0
-160 -55 0 -55 0 0 160 0 160 -60 0 -60 0 0 40 0 40 175 0 175 0 0 -40z
m-1767 -551 c47 -13 106 -63 123 -106 18 -42 18 -124 0 -166 -17 -43 -76 -93
-123 -106 -21 -6 -84 -11 -140 -11 l-103 0 0 200 0 200 103 0 c56 0 119 -5
140 -11z m357 -189 l0 -200 -50 0 -50 0 0 200 0 200 50 0 50 0 0 -200z m440
178 c24 -13 45 -27 47 -33 2 -5 -8 -23 -21 -40 -24 -29 -25 -30 -53 -14 -48
28 -88 32 -128 13 -122 -58 -57 -250 73 -218 36 9 37 10 40 62 l3 52 45 0 44
0 0 -79 0 -79 -51 -21 c-110 -48 -235 -19 -289 66 -53 83 -48 170 13 240 65
74 187 96 277 51z m490 -18 l0 -40 -105 0 -105 0 0 -40 0 -40 95 0 95 0 0 -40
0 -40 -95 0 -95 0 0 -40 0 -40 110 0 110 0 0 -40 0 -40 -160 0 -160 0 0 200 0
200 155 0 155 0 0 -40z m397 21 l42 -20 -16 -41 c-12 -31 -20 -39 -32 -34 -87
37 -148 44 -157 19 -10 -25 13 -42 84 -66 109 -36 146 -95 110 -174 -28 -63
-165 -86 -257 -44 -69 31 -73 36 -54 73 8 17 17 33 19 35 1 1 27 -9 57 -24 71
-34 130 -32 135 4 4 29 -4 35 -88 60 -80 25 -112 55 -114 109 -1 48 25 89 67
107 47 21 154 18 204 -4z m473 -21 l0 -40 -60 0 -60 0 0 -160 0 -160 -55 0
-55 0 0 160 0 160 -60 0 -60 0 0 40 0 40 175 0 175 0 0 -40z m-797 -885 c1 -5
-6 -11 -15 -13 -11 -2 -18 3 -18 13 0 17 30 18 33 0z m585 3 c-3 -7 -14 -14
-26 -16 -28 -4 -29 -32 -2 -32 11 0 20 -5 20 -11 0 -6 -9 -13 -20 -16 -17 -5
-20 -14 -20 -59 0 -41 -4 -54 -15 -54 -12 0 -15 13 -15 55 0 30 -4 55 -10 55
-5 0 -10 7 -10 15 0 8 5 15 10 15 6 0 10 8 10 18 0 10 5 23 12 30 16 16 71 16
66 0z m-1428 -28 c0 -13 7 -20 20 -20 11 0 20 -7 20 -15 0 -8 -9 -15 -20 -15
-17 0 -20 -7 -20 -40 0 -33 3 -40 20 -40 11 0 20 -7 20 -16 0 -11 -8 -14 -32
-12 -32 3 -33 4 -36 56 -2 28 -7 52 -13 52 -5 0 -9 7 -9 15 0 8 5 15 10 15 6
0 10 9 10 20 0 11 7 20 15 20 8 0 15 -9 15 -20z m390 0 c0 -13 7 -20 20 -20
11 0 20 -7 20 -15 0 -8 -9 -15 -20 -15 -17 0 -20 -7 -20 -40 0 -33 3 -40 20
-40 11 0 20 -7 20 -16 0 -11 -8 -14 -32 -12 -32 3 -33 4 -36 56 -2 28 -7 52
-13 52 -5 0 -9 7 -9 15 0 8 5 15 10 15 6 0 10 9 10 20 0 11 7 20 15 20 8 0 15
-9 15 -20z m-1109 -20 c5 0 9 -7 9 -15 0 -11 -7 -13 -29 -9 -44 9 -46 -12 -4
-33 40 -19 52 -45 33 -68 -21 -26 -100 -17 -100 11 0 17 5 17 30 4 19 -10 50
-4 50 10 0 5 -16 14 -35 20 -34 11 -53 40 -40 61 10 14 47 29 63 23 8 -2 18
-4 23 -4z m196 -12 c7 -5 14 -5 18 2 9 14 68 13 83 -2 18 -18 16 -128 -2 -128
-11 0 -16 15 -18 53 -3 50 -4 52 -33 52 -29 0 -30 -2 -33 -52 -2 -38 -7 -53
-18 -53 -10 0 -14 12 -14 39 0 55 -8 71 -36 71 -28 0 -44 -26 -44 -74 0 -25
-4 -36 -15 -36 -12 0 -15 15 -15 71 0 69 1 71 23 66 12 -3 31 -2 42 3 21 7 41
4 62 -12z m281 -1 c7 -6 12 -33 12 -67 l0 -57 -52 -1 c-29 0 -58 4 -65 10 -34
28 5 78 60 78 25 0 28 2 17 15 -7 9 -25 15 -39 13 -37 -4 -42 16 -6 23 32 6
52 2 73 -14z m523 13 c5 0 9 -7 9 -15 0 -11 -7 -13 -29 -9 -44 9 -46 -12 -4
-33 40 -19 52 -45 33 -68 -21 -26 -100 -17 -100 11 0 17 5 17 30 4 19 -10 50
-4 50 10 0 5 -16 14 -35 20 -34 11 -53 40 -40 61 10 14 47 29 63 23 8 -2 18
-4 23 -4z m339 -30 c40 -74 -61 -149 -120 -90 -37 37 -17 114 33 122 32 5 76
-11 87 -32z m403 12 c9 -8 17 -26 17 -39 0 -21 -4 -23 -56 -23 -50 0 -55 -2
-43 -16 7 -8 26 -15 43 -14 46 3 50 1 36 -15 -18 -22 -76 -19 -100 5 -11 11
-20 32 -20 48 0 69 69 100 123 54z m148 18 c5 0 9 -7 9 -15 0 -11 -7 -13 -29
-9 -44 9 -46 -12 -4 -33 40 -19 52 -45 33 -68 -21 -26 -100 -17 -100 11 0 17
5 17 30 4 19 -10 50 -4 50 10 0 5 -16 14 -35 20 -34 11 -53 40 -40 61 10 14
47 29 63 23 8 -2 18 -4 23 -4z m419 -30 c40 -74 -61 -149 -120 -90 -37 37 -17
114 33 122 32 5 76 -11 87 -32z m-1680 14 c0 -8 -7 -14 -15 -14 -20 0 -35 -32
-35 -74 0 -25 -4 -36 -15 -36 -12 0 -15 14 -15 69 l0 68 40 0 c27 0 40 -4 40
-13z m850 0 c0 -8 -7 -14 -15 -14 -20 0 -35 -32 -35 -74 0 -25 -4 -36 -15 -36
-12 0 -15 14 -15 69 l0 68 40 0 c27 0 40 -4 40 -13z m80 -54 c0 -56 -3 -70
-15 -70 -12 0 -15 14 -15 70 0 56 3 70 15 70 12 0 15 -14 15 -70z m890 54 c0
-8 -7 -14 -15 -14 -20 0 -35 -32 -35 -74 0 -25 -4 -36 -15 -36 -12 0 -15 14
-15 69 l0 68 40 0 c27 0 40 -4 40 -13z m-1717 -259 c1 -5 -6 -11 -15 -13 -11
-2 -18 3 -18 13 0 17 30 18 33 0z m207 -85 c0 -82 -3 -100 -15 -100 -8 0 -15
5 -15 12 0 9 -3 9 -12 0 -19 -19 -66 -14 -88 8 -25 25 -26 71 -2 99 18 24 44
29 80 17 20 -7 22 -4 22 28 0 25 4 36 15 36 12 0 15 -18 15 -100z m-730 10
c40 -74 -61 -149 -120 -90 -37 37 -17 114 33 122 32 5 76 -11 87 -32z m913 12
c9 -8 17 -26 17 -39 0 -21 -4 -23 -56 -23 -50 0 -55 -2 -43 -16 7 -8 26 -15
43 -14 46 3 50 1 36 -15 -18 -22 -76 -19 -100 5 -11 11 -20 32 -20 48 0 69 69
100 123 54z m175 5 c7 -6 12 -33 12 -67 l0 -57 -52 -1 c-29 0 -58 4 -65 10
-34 28 5 78 60 78 25 0 28 2 17 15 -7 9 -25 15 -39 13 -37 -4 -42 16 -6 23 32
6 52 2 73 -14z m153 13 c5 0 9 -7 9 -15 0 -11 -7 -13 -29 -9 -44 9 -46 -12 -4
-33 40 -19 52 -45 33 -68 -21 -26 -100 -17 -100 11 0 17 5 17 30 4 19 -10 50
-4 50 10 0 5 -16 14 -35 20 -34 11 -53 40 -40 61 10 14 47 29 63 23 8 -2 18
-4 23 -4z m-1498 -51 l22 -51 19 51 c10 28 24 51 32 51 18 0 19 3 -17 -87 -38
-95 -44 -103 -81 -103 -33 0 -35 22 -2 29 31 6 33 21 12 70 -38 87 -39 91 -23
91 9 0 25 -22 38 -51z m347 1 c0 -38 4 -52 16 -57 30 -11 49 11 52 61 2 32 7
46 18 46 11 0 14 -16 14 -70 0 -56 -3 -70 -15 -70 -8 0 -15 5 -15 12 0 9 -3 9
-12 0 -7 -7 -24 -12 -38 -12 -39 0 -50 18 -50 82 0 45 3 58 15 58 11 0 15 -12
15 -50z m250 34 c0 -8 -7 -14 -15 -14 -20 0 -35 -32 -35 -74 0 -25 -4 -36 -15
-36 -12 0 -15 14 -15 69 l0 68 40 0 c27 0 40 -4 40 -13z m180 -54 c0 -56 -3
-70 -15 -70 -12 0 -15 14 -15 70 0 56 3 70 15 70 12 0 15 -14 15 -70z m811
-55 c-1 -15 -24 -12 -29 3 -3 9 2 13 12 10 10 -1 17 -7 17 -13z"/>
<path d="M1600 2525 l0 -65 50 0 c64 0 106 34 95 78 -9 39 -32 52 -92 52 l-53
0 0 -65z"/>
<path d="M2353 2575 c-104 -45 -67 -225 47 -225 34 0 78 28 95 60 32 62 9 136
-51 165 -39 18 -50 18 -91 0z"/>
<path d="M1120 1890 l0 -120 44 0 c62 0 93 14 116 52 24 39 25 76 5 124 -17
40 -63 64 -125 64 l-40 0 0 -120z"/>
<path d="M1450 1026 c0 -19 28 -28 51 -16 30 16 23 30 -16 30 -23 0 -35 -5
-35 -14z"/>
<path d="M2306 1084 c-30 -30 -13 -74 29 -74 43 0 59 44 27 73 -23 21 -36 21
-56 1z"/>
<path d="M2722 1088 c-21 -21 -13 -28 28 -28 22 0 40 4 40 8 0 14 -23 32 -40
32 -9 0 -21 -5 -28 -12z"/>
<path d="M3276 1084 c-30 -30 -13 -74 29 -74 43 0 59 44 27 73 -23 21 -36 21
-56 1z"/>
<path d="M1896 764 c-30 -30 -13 -74 29 -74 42 0 59 44 29 74 -8 9 -22 16 -29
16 -7 0 -21 -7 -29 -16z"/>
<path d="M1176 764 c-30 -30 -13 -74 29 -74 43 0 59 44 27 73 -23 21 -36 21
-56 1z"/>
<path d="M2102 768 c-21 -21 -13 -28 28 -28 22 0 40 4 40 8 0 14 -23 32 -40
32 -9 0 -21 -5 -28 -12z"/>
<path d="M2270 706 c0 -19 28 -28 51 -16 30 16 23 30 -16 30 -23 0 -35 -5 -35
-14z"/>
</g>
</svg>
